<svg width="15" height="14" viewBox="0 0 15 14" fill="none" xmlns="http://www.w3.org/2000/svg">
<mask id="mask0_446_292" style="mask-type:alpha" maskUnits="userSpaceOnUse" x="0" y="0" width="15" height="14">
<rect width="15" height="14" fill="#D9D9D9"/>
</mask>
<g mask="url(#mask0_446_292)">
<path d="M2.5 12.8334V6.41671H1.25V2.91671H4.5C4.44792 2.82921 4.41406 2.73685 4.39844 2.63962C4.38281 2.5424 4.375 2.44032 4.375 2.33337C4.375 1.84726 4.55729 1.43407 4.92188 1.09379C5.28646 0.753513 5.72917 0.583374 6.25 0.583374C6.48958 0.583374 6.71354 0.624693 6.92188 0.707332C7.13021 0.789971 7.32292 0.904207 7.5 1.05004C7.67708 0.894485 7.86979 0.777818 8.07812 0.700041C8.28646 0.622263 8.51042 0.583374 8.75 0.583374C9.27083 0.583374 9.71354 0.753513 10.0781 1.09379C10.4427 1.43407 10.625 1.84726 10.625 2.33337C10.625 2.44032 10.6146 2.53997 10.5938 2.63233C10.5729 2.72469 10.5417 2.81948 10.5 2.91671H13.75V6.41671H12.5V12.8334H2.5ZM8.75 1.75004C8.57292 1.75004 8.42448 1.80594 8.30469 1.91775C8.1849 2.02955 8.125 2.1681 8.125 2.33337C8.125 2.49865 8.1849 2.63719 8.30469 2.749C8.42448 2.8608 8.57292 2.91671 8.75 2.91671C8.92708 2.91671 9.07552 2.8608 9.19531 2.749C9.3151 2.63719 9.375 2.49865 9.375 2.33337C9.375 2.1681 9.3151 2.02955 9.19531 1.91775C9.07552 1.80594 8.92708 1.75004 8.75 1.75004ZM5.625 2.33337C5.625 2.49865 5.6849 2.63719 5.80469 2.749C5.92448 2.8608 6.07292 2.91671 6.25 2.91671C6.42708 2.91671 6.57552 2.8608 6.69531 2.749C6.8151 2.63719 6.875 2.49865 6.875 2.33337C6.875 2.1681 6.8151 2.02955 6.69531 1.91775C6.57552 1.80594 6.42708 1.75004 6.25 1.75004C6.07292 1.75004 5.92448 1.80594 5.80469 1.91775C5.6849 2.02955 5.625 2.1681 5.625 2.33337ZM2.5 4.08337V5.25004H6.875V4.08337H2.5ZM6.875 11.6667V6.41671H3.75V11.6667H6.875ZM8.125 11.6667H11.25V6.41671H8.125V11.6667ZM12.5 5.25004V4.08337H8.125V5.25004H12.5Z" fill="white"/>
</g>
</svg>
